{
    "asset" : {
        "generator" : "Khronos glTF Blender I/O v3.2.43",
        "version" : "2.0"
    },
    "scene" : 0,
    "scenes" : [
        {
            "name" : "Scene",
            "nodes" : [
                1
            ]
        }
    ],
    "nodes" : [
        {
            "mesh" : 0,
            "name" : "Icing",
            "translation" : [
                0.0004981439560651779,
                -0.00081052997848019,
                -0.0004233623913023621
            ]
        },
        {
            "children" : [
                0
            ],
            "mesh" : 1,
            "name" : "Donut",
            "rotation" : [
                0.46984633803367615,
                0.2961980998516083,
                -0.1710100769996643,
                0.8137977123260498
            ],
            "translation" : [
                0.000205663702217862,
                3.8622296415269375e-05,
                0.0010200748220086098
            ]
        }
    ],
    "animations" : [
        {
            "channels" : [
                {
                    "sampler" : 0,
                    "target" : {
                        "node" : 1,
                        "path" : "rotation"
                    }
                }
            ],
            "name" : "DonutAction",
            "samplers" : [
                {
                    "input" : 8,
                    "interpolation" : "LINEAR",
                    "output" : 9
                }
            ]
        },
        {
            "channels" : [
                {
                    "sampler" : 0,
                    "target" : {
                        "node" : 0,
                        "path" : "translation"
                    }
                },
                {
                    "sampler" : 1,
                    "target" : {
                        "node" : 0,
                        "path" : "rotation"
                    }
                },
                {
                    "sampler" : 2,
                    "target" : {
                        "node" : 0,
                        "path" : "scale"
                    }
                }
            ],
            "name" : "Icing",
            "samplers" : [
                {
                    "input" : 8,
                    "interpolation" : "LINEAR",
                    "output" : 10
                },
                {
                    "input" : 8,
                    "interpolation" : "LINEAR",
                    "output" : 11
                },
                {
                    "input" : 8,
                    "interpolation" : "LINEAR",
                    "output" : 12
                }
            ]
        }
    ],
    "materials" : [
        {
            "doubleSided" : true,
            "name" : "Material.001",
            "pbrMetallicRoughness" : {
                "baseColorFactor" : [
                    0.12144061923027039,
                    0.04816235229372978,
                    0.0018191705457866192,
                    1
                ],
                "metallicFactor" : 0,
                "roughnessFactor" : 0.32436686754226685
            }
        },
        {
            "doubleSided" : true,
            "name" : "Material.002",
            "pbrMetallicRoughness" : {
                "baseColorTexture" : {
                    "index" : 0
                },
                "metallicFactor" : 0,
                "roughnessFactor" : 0.5421052575111389
            }
        }
    ],
    "meshes" : [
        {
            "name" : "Torus.002",
            "primitives" : [
                {
                    "attributes" : {
                        "POSITION" : 0,
                        "NORMAL" : 1,
                        "TEXCOORD_0" : 2
                    },
                    "indices" : 3,
                    "material" : 0
                }
            ]
        },
        {
            "name" : "Torus",
            "primitives" : [
                {
                    "attributes" : {
                        "POSITION" : 4,
                        "NORMAL" : 5,
                        "TEXCOORD_0" : 6
                    },
                    "indices" : 7,
                    "material" : 1
                }
            ]
        }
    ],
    "textures" : [
        {
            "sampler" : 0,
            "source" : 0
        }
    ],
    "images" : [
        {
            "mimeType" : "image/png",
            "name" : "donut base",
            "uri" : "donut%20base.png"
        }
    ],
    "accessors" : [
        {
            "bufferView" : 0,
            "componentType" : 5126,
            "count" : 11742,
            "max" : [
                0.05152525752782822,
                0.026189731433987617,
                0.05108622834086418
            ],
            "min" : [
                -0.049797456711530685,
                -0.008181558921933174,
                -0.05069150775671005
            ],
            "type" : "VEC3"
        },
        {
            "bufferView" : 1,
            "componentType" : 5126,
            "count" : 11742,
            "type" : "VEC3"
        },
        {
            "bufferView" : 2,
            "componentType" : 5126,
            "count" : 11742,
            "type" : "VEC2"
        },
        {
            "bufferView" : 3,
            "componentType" : 5123,
            "count" : 65952,
            "type" : "SCALAR"
        },
        {
            "bufferView" : 4,
            "componentType" : 5126,
            "count" : 2831,
            "max" : [
                0.04987605661153793,
                0.022465700283646584,
                0.04860113561153412
            ],
            "min" : [
                -0.04987605661153793,
                -0.022465700283646584,
                -0.04860113561153412
            ],
            "type" : "VEC3"
        },
        {
            "bufferView" : 5,
            "componentType" : 5126,
            "count" : 2831,
            "type" : "VEC3"
        },
        {
            "bufferView" : 6,
            "componentType" : 5126,
            "count" : 2831,
            "type" : "VEC2"
        },
        {
            "bufferView" : 7,
            "componentType" : 5123,
            "count" : 15360,
            "type" : "SCALAR"
        },
        {
            "bufferView" : 8,
            "componentType" : 5126,
            "count" : 301,
            "max" : [
                10.033333333333333
            ],
            "min" : [
                0.03333333333333333
            ],
            "type" : "SCALAR"
        },
        {
            "bufferView" : 9,
            "componentType" : 5126,
            "count" : 301,
            "type" : "VEC4"
        },
        {
            "bufferView" : 10,
            "componentType" : 5126,
            "count" : 301,
            "type" : "VEC3"
        },
        {
            "bufferView" : 11,
            "componentType" : 5126,
            "count" : 301,
            "type" : "VEC4"
        },
        {
            "bufferView" : 12,
            "componentType" : 5126,
            "count" : 301,
            "type" : "VEC3"
        }
    ],
    "bufferViews" : [
        {
            "buffer" : 0,
            "byteLength" : 140904,
            "byteOffset" : 0
        },
        {
            "buffer" : 0,
            "byteLength" : 140904,
            "byteOffset" : 140904
        },
        {
            "buffer" : 0,
            "byteLength" : 93936,
            "byteOffset" : 281808
        },
        {
            "buffer" : 0,
            "byteLength" : 131904,
            "byteOffset" : 375744
        },
        {
            "buffer" : 0,
            "byteLength" : 33972,
            "byteOffset" : 507648
        },
        {
            "buffer" : 0,
            "byteLength" : 33972,
            "byteOffset" : 541620
        },
        {
            "buffer" : 0,
            "byteLength" : 22648,
            "byteOffset" : 575592
        },
        {
            "buffer" : 0,
            "byteLength" : 30720,
            "byteOffset" : 598240
        },
        {
            "buffer" : 0,
            "byteLength" : 1204,
            "byteOffset" : 628960
        },
        {
            "buffer" : 0,
            "byteLength" : 4816,
            "byteOffset" : 630164
        },
        {
            "buffer" : 0,
            "byteLength" : 3612,
            "byteOffset" : 634980
        },
        {
            "buffer" : 0,
            "byteLength" : 4816,
            "byteOffset" : 638592
        },
        {
            "buffer" : 0,
            "byteLength" : 3612,
            "byteOffset" : 643408
        }
    ],
    "samplers" : [
        {
            "magFilter" : 9729,
            "minFilter" : 9987
        }
    ],
    "buffers" : [
        {
            "byteLength" : 647020,
            "uri" : "Donut1.bin"
        }
    ]
}
